# File created by Blade
# Date/Time:  Thu Jan 22 16:52:56 2015
# Frame Rate: 120.000 fps
#------------------------------------------------------
:FULLY-SPECIFIED
:DEGREES
1537
root 3.197521 3.255252 -0.030799 -21.377150 3.122740 0.535998
RightUpLeg -54.265008 -40.458678 -27.905990
RightLeg 2.547184 -0.000000 -0.000000
RightFoot 3.019802 -30.483603 33.505847
RightToeBase 6.522008 -0.000000 -0.000000
LeftUpLeg -68.983490 31.358314 3.326368
LeftLeg 4.112221 -0.000000 -0.000000
LeftFoot 10.490604 30.884026 -38.582228
LeftToeBase -0.924984 -0.000000 0.000000
Spine 83.279660 -4.329809 -8.544967
RightShoulder 65.496485 72.849228 9.316538
RightArm 4.625546 -4.168475 59.236545
RightForeArm -13.305868 -0.000000 34.320203
RightHand 4.568621 -0.000000 -8.762390
RightHandThumb1 -24.326973 -0.000000 -32.862282
LeftShoulder 4.811352 9.071851 37.849771
LeftArm 86.790189 -33.039561 -47.712476
LeftForeArm 34.570415 0.000000 15.151726
LeftHand -13.315820 -0.000000 1.027348
LeftHandThumb1 -26.253704 0.000000 33.147579
Head 24.251190 19.463052 3.613038
1538
root 3.198414 3.257142 -0.029287 -21.375379 3.146813 0.578660
RightUpLeg -54.268190 -40.466549 -27.959154
RightLeg 2.559860 -0.000000 -0.000000
RightFoot 3.037337 -30.478140 33.501902
RightToeBase 6.514295 -0.000000 -0.000000
LeftUpLeg -68.983804 31.338650 3.298671
LeftLeg 4.147851 -0.000000 -0.000000
LeftFoot 10.523800 30.871246 -38.507331
LeftToeBase -0.940106 -0.000000 0.000000
Spine 83.311880 -4.236861 -8.542692
RightShoulder 66.544395 73.263530 10.564007
RightArm 4.276765 -4.504151 59.394712
RightForeArm -13.188513 -0.000000 34.192264
RightHand 4.601934 -0.000000 -8.698909
RightHandThumb1 -24.326973 -0.000000 -32.862282
LeftShoulder 4.719458 8.988479 38.000428
LeftArm 86.942686 -32.944060 -47.860512
LeftForeArm 34.670091 0.000000 15.104270
LeftHand -13.249491 0.000000 0.975395
LeftHandThumb1 -26.253704 0.000000 33.147579
Head 23.092181 19.296198 3.577963
1539
root 3.200781 3.252293 -0.028315 -21.331225 3.179274 0.650906
RightUpLeg -54.331593 -40.477751 -28.044421
RightLeg 2.618698 -0.000000 -0.000000
RightFoot 3.038526 -30.455083 33.522153
RightToeBase 6.484008 -0.000000 -0.000000
LeftUpLeg -69.031454 31.308793 3.245542
LeftLeg 4.194683 -0.000000 -0.000000
LeftFoot 10.584397 30.839159 -38.308803
LeftToeBase -0.817541 -0.000000 0.000000
Spine 83.282452 -4.151649 -8.600931
RightShoulder 67.178303 73.546631 11.332382
RightArm 4.052323 -4.724687 59.519716
RightForeArm -13.101027 -0.000000 34.132751
RightHand 4.606044 -0.000000 -8.628212
RightHandThumb1 -24.326973 -0.000000 -32.862282
LeftShoulder 4.597715 8.935067 38.132109
LeftArm 87.108985 -32.832928 -48.024948
LeftForeArm 34.843965 0.000000 15.084080
LeftHand -13.241862 -0.000000 0.872383
LeftHandThumb1 -26.253704 0.000000 33.147579
Head 22.051061 19.168061 3.535526
1540
root 3.204464 3.246999 -0.028524 -21.271097 3.212836 0.719067
RightUpLeg -54.409424 -40.493818 -28.121494
RightLeg 2.670271 -0.000000 -0.000000
RightFoot 3.030118 -30.468821 33.579600
RightToeBase 6.461846 -0.000000 -0.000000
LeftUpLeg -69.129521 31.286557 3.142513
LeftLeg 4.260919 -0.000000 -0.000000
LeftFoot 10.658156 30.775891 -38.180473
LeftToeBase -0.828982 -0.000000 0.000000
Spine 83.238467 -4.120646 -8.702233
RightShoulder 68.406716 73.861302 12.605443
RightArm 3.691258 -4.881276 59.696301
RightForeArm -13.085212 -0.000000 34.104623
RightHand 4.574955 -0.000000 -8.559401
RightHandThumb1 -24.326973 -0.000000 -32.862282
LeftShoulder 4.453970 8.853494 38.171175
LeftArm 87.134574 -32.714742 -48.022398
LeftForeArm 34.911837 0.000000 15.103975
LeftHand -13.042593 -0.000000 0.916584
LeftHandThumb1 -26.253704 0.000000 33.147579
Head 21.059732 19.062003 3.351388
1541
root 3.205853 3.247205 -0.027724 -21.243094 3.231282 0.758767
RightUpLeg -54.437457 -40.489416 -28.178778
RightLeg 2.699868 -0.000000 -0.000000
RightFoot 3.041112 -30.468706 33.546295
RightToeBase 6.473035 -0.000000 -0.000000
LeftUpLeg -69.183612 31.273401 3.085178
LeftLeg 4.315434 -0.000000 -0.000000
LeftFoot 10.721721 30.691448 -38.115507
LeftToeBase -0.850428 -0.000000 0.000000
Spine 83.247194 -4.079743 -8.758134
RightShoulder 69.971002 74.223049 14.268028
RightArm 3.280390 -5.161674 59.845626
RightForeArm -12.968663 0.000000 34.053414
RightHand 4.560585 -0.000000 -8.508817
RightHandThumb1 -24.326973 -0.000000 -32.862282
LeftShoulder 4.317567 8.750092 38.238609
LeftArm 87.160597 -32.605778 -48.058729
LeftForeArm 35.042530 -0.000000 15.116958
LeftHand -13.028361 -0.000000 0.844635
LeftHandThumb1 -26.253704 0.000000 33.147579
Head 20.108288 18.919732 3.164440
1542
root 3.208167 3.253401 -0.025379 -21.245714 3.272812 0.756412
RightUpLeg -54.383097 -40.513160 -28.238733
RightLeg 2.705153 -0.000000 -0.000000
RightFoot 3.055492 -30.420815 33.525437
RightToeBase 6.469302 -0.000000 -0.000000
LeftUpLeg -69.183669 31.219969 3.083480
LeftLeg 4.341734 -0.000000 -0.000000
LeftFoot 10.790781 30.596688 -38.069171
LeftToeBase -0.860019 -0.000000 0.000000
Spine 83.308683 -4.057907 -8.724884
RightShoulder 70.950968 74.538703 15.379871
RightArm 3.010646 -5.432937 59.930112
RightForeArm -12.903880 0.000000 33.988899
RightHand 4.581649 -0.000000 -8.542767
RightHandThumb1 -24.326973 -0.000000 -32.862282
LeftShoulder 4.217860 8.554933 38.337337
LeftArm 87.193330 -32.474199 -48.125606
LeftForeArm 35.041075 -0.000000 15.127376
LeftHand -13.085093 -0.000000 0.613592
LeftHandThumb1 -26.253704 0.000000 33.147579
Head 19.212254 18.834663 3.121577
1543
root 3.211433 3.253699 -0.025630 -21.258811 3.299770 0.822814
RightUpLeg -54.344734 -40.472781 -28.382249
RightLeg 2.731880 -0.000000 -0.000000
RightFoot 3.071570 -30.409293 33.483500
RightToeBase 6.466903 -0.000000 -0.000000
LeftUpLeg -69.153690 31.196862 3.046217
LeftLeg 4.359132 -0.000000 -0.000000
LeftFoot 10.841545 30.528036 -38.052067
LeftToeBase -0.874417 -0.000000 0.000000
Spine 83.389838 -3.899052 -8.660975
RightShoulder 71.503380 74.943643 16.183964
RightArm 2.769704 -5.772538 60.018495
RightForeArm -12.793192 -0.000000 33.909939
RightHand 4.618095 -0.000000 -8.411255
RightHandThumb1 -24.326973 -0.000000 -32.862282
LeftShoulder 4.131940 8.351455 38.604367
LeftArm 87.365994 -32.341027 -48.341107
LeftForeArm 35.109358 0.000000 15.114435
LeftHand -13.184821 -0.000000 0.462822
LeftHandThumb1 -26.253704 0.000000 33.147579
Head 18.229419 18.649712 3.328860
1544
root 3.210629 3.260007 -0.024389 -21.270897 3.287122 0.822376
RightUpLeg -54.296585 -40.422776 -28.420343
RightLeg 2.719479 -0.000000 -0.000000
RightFoot 3.096428 -30.365723 33.403964
RightToeBase 6.488135 -0.000000 -0.000000
LeftUpLeg -69.140526 31.211033 3.043992
LeftLeg 4.362478 -0.000000 -0.000000
LeftFoot 10.935331 30.443532 -38.008126
LeftToeBase -0.918092 -0.000000 0.000000
Spine 83.484202 -3.865286 -8.669842
RightShoulder 72.352452 75.203445 16.989371
RightArm 2.552153 -5.883886 60.079165
RightForeArm -12.797006 0.000000 33.914064
RightHand 4.592491 0.000000 -8.347801
RightHandThumb1 -24.326973 -0.000000 -32.862282
LeftShoulder 3.973401 8.216311 38.630266
LeftArm 87.376150 -32.282533 -48.313224
LeftForeArm 35.076468 -0.000000 15.092832
LeftHand -13.116322 -0.000000 0.440478
LeftHandThumb1 -26.253704 0.000000 33.147579
Head 17.281027 18.395050 2.937655
1545
root 3.213446 3.253875 -0.024937 -21.235364 3.305017 0.864620
RightUpLeg -54.303310 -40.390943 -28.527183
RightLeg 2.737949 -0.000000 -0.000000
RightFoot 3.129983 -30.343472 33.372601
RightToeBase 6.547107 -0.000000 -0.000000
LeftUpLeg -69.181830 31.190423 2.998025
LeftLeg 4.375301 -0.000000 -0.000000
LeftFoot 10.996215 30.415305 -37.974949
LeftToeBase -0.907800 -0.000000 0.000000
Spine 83.495431 -3.831941 -8.683271
RightShoulder 74.137554 75.571176 18.889264
RightArm 2.158814 -6.216408 60.212071
RightForeArm -12.786446 -0.000000 33.839792
RightHand 4.571922 0.000000 -8.353305
RightHandThumb1 -24.326973 -0.000000 -32.862282
LeftShoulder 3.865498 8.093103 38.683382
LeftArm 87.418474 -32.228603 -48.324668
LeftForeArm 35.169821 -0.000000 15.047127
LeftHand -13.199577 -0.000000 0.339759
LeftHandThumb1 -26.253704 0.000000 33.147579
Head 16.485256 18.314324 2.790742
1546
root 3.214779 3.254352 -0.025344 -21.235689 3.309124 0.894014
RightUpLeg -54.270565 -40.345920 -28.608540
RightLeg 2.731155 -0.000000 -0.000000
RightFoot 3.168415 -30.296321 33.304539
RightToeBase 6.572692 -0.000000 -0.000000
LeftUpLeg -69.146368 31.181007 2.999706
LeftLeg 4.347408 -0.000000 -0.000000
LeftFoot 11.006126 30.414408 -38.011704
LeftToeBase -0.856694 -0.000000 0.000000
Spine 83.584642 -3.762361 -8.686634
RightShoulder 74.393468 75.829336 19.151559
RightArm 2.055630 -6.263870 60.275365
RightForeArm -12.744746 -0.000000 33.861990
RightHand 4.619196 0.000000 -8.241443
RightHandThumb1 -24.326973 -0.000000 -32.862282
LeftShoulder 3.719966 7.940910 38.780737
LeftArm 87.471006 -32.149685 -48.352746
LeftForeArm 35.537294 0.000000 14.969681
LeftHand -13.144881 -0.000000 0.554394
LeftHandThumb1 -26.253704 0.000000 33.147579
Head 15.619442 18.175795 2.676151
1547
root 3.213072 3.260945 -0.023967 -21.281062 3.290121 0.892435
RightUpLeg -54.173905 -40.267163 -28.673151
RightLeg 2.701303 -0.000000 -0.000000
RightFoot 3.187644 -30.250936 33.300129
RightToeBase 6.484307 -0.000000 -0.000000
LeftUpLeg -69.073145 31.206488 3.023372
LeftLeg 4.315633 -0.000000 -0.000000
LeftFoot 11.048349 30.382242 -37.993947
LeftToeBase -0.850617 -0.000000 0.000000
Spine 83.737559 -3.685352 -8.637826
RightShoulder 75.399272 76.151721 20.260288
RightArm 1.881824 -6.496819 60.322731
RightForeArm -12.695841 0.000000 33.819773
RightHand 4.639504 -0.000000 -8.256810
RightHandThumb1 -24.326973 -0.000000 -32.862282
LeftShoulder 3.577760 7.809663 38.864336
LeftArm 87.605190 -32.118948 -48.463596
LeftForeArm 35.654395 0.000000 14.933066
LeftHand -13.008838 -0.000000 0.662180
LeftHandThumb1 -26.253704 0.000000 33.147579
Head 14.829122 18.096513 2.558777
1548
root 3.211752 3.261814 -0.023294 -21.280603 3.274615 0.892490
RightUpLeg -54.166620 -40.229469 -28.679482
RightLeg 2.687336 -0.000000 -0.000000
RightFoot 3.247103 -30.203187 33.237653
RightToeBase 6.457982 -0.000000 -0.000000
LeftUpLeg -69.065191 31.224861 3.020963
LeftLeg 4.294354 -0.000000 -0.000000
LeftFoot 11.064126 30.387636 -37.967257
LeftToeBase -0.884412 -0.000000 0.000000
Spine 83.828253 -3.690812 -8.674219
RightShoulder 76.368757 76.386467 21.221497
RightArm 1.794207 -6.603929 60.394389
RightForeArm -12.800124 -0.000000 33.800982
RightHand 4.547059 -0.000000 -8.275151
RightHandThumb1 -24.326973 -0.000000 -32.862282
LeftShoulder 3.402639 7.733472 38.819051
LeftArm 87.671543 -32.122885 -48.524656
LeftForeArm 35.742882 -0.000000 14.951671
LeftHand -13.094241 -0.000000 0.514321
LeftHandThumb1 -26.253704 0.000000 33.147579
Head 14.089915 18.021648 2.168566
